<svg width="35" height="36" viewBox="0 0 35 36" fill="none" xmlns="http://www.w3.org/2000/svg">
<g clip-path="url(#clip0_300_1141)">
<path d="M29.4193 7.22929C27.2376 6.24535 24.8989 5.51809 22.4533 5.10455C22.4315 5.10037 22.409 5.10306 22.3888 5.11226C22.3686 5.12146 22.3518 5.1367 22.3407 5.15588C22.0412 5.68208 21.7075 6.36799 21.4736 6.90987C18.8799 6.52233 16.2429 6.52233 13.6492 6.90987C13.3887 6.30932 13.0949 5.72375 12.7693 5.15588C12.7583 5.13647 12.7416 5.12088 12.7215 5.11119C12.7013 5.10151 12.6787 5.0982 12.6567 5.1017C10.2125 5.51524 7.87385 6.2425 5.69063 7.22787C5.67185 7.23575 5.65593 7.24918 5.645 7.26637C1.20728 13.7903 -0.00910264 20.1532 0.588393 26.4361C0.590056 26.4515 0.594832 26.4664 0.602432 26.4799C0.610032 26.4934 0.620296 26.5052 0.632599 26.5146C3.22278 28.4004 6.11179 29.8369 9.17864 30.7641C9.20002 30.7706 9.22289 30.7706 9.24426 30.764C9.26562 30.7574 9.2845 30.7445 9.29842 30.727C9.95724 29.8429 10.5448 28.9088 11.0467 27.9277C11.0767 27.8707 11.0481 27.8022 10.9882 27.7794C10.067 27.4325 9.17448 27.0139 8.31876 26.5274C8.30338 26.5186 8.29043 26.5062 8.28105 26.4911C8.27168 26.4761 8.26618 26.459 8.26505 26.4413C8.26392 26.4237 8.26719 26.406 8.27457 26.3899C8.28196 26.3738 8.29322 26.3598 8.30735 26.3492C8.48703 26.2165 8.6667 26.0782 8.83782 25.9399C8.85323 25.9275 8.87178 25.9195 8.89142 25.917C8.91106 25.9145 8.93101 25.9175 8.94905 25.9256C14.549 28.4411 20.6138 28.4411 26.1481 25.9256C26.1662 25.917 26.1863 25.9136 26.2063 25.9159C26.2262 25.9182 26.2451 25.926 26.2607 25.9385C26.4319 26.0782 26.6101 26.2165 26.7912 26.3492C26.8055 26.3596 26.8169 26.3734 26.8246 26.3894C26.8322 26.4053 26.8357 26.4229 26.8349 26.4406C26.834 26.4582 26.8288 26.4754 26.8197 26.4906C26.8106 26.5057 26.7979 26.5184 26.7827 26.5274C25.9299 27.0179 25.0429 27.4329 24.1118 27.778C24.0975 27.7832 24.0844 27.7914 24.0735 27.802C24.0627 27.8126 24.0542 27.8255 24.0486 27.8396C24.0431 27.8538 24.0406 27.869 24.0414 27.8842C24.0423 27.8994 24.0463 27.9142 24.0533 27.9277C24.5666 28.9074 25.1542 29.84 25.8001 30.7256C25.8136 30.7437 25.8323 30.7573 25.8537 30.7645C25.8752 30.7716 25.8983 30.772 25.9199 30.7655C28.992 29.8409 31.8858 28.4037 34.4788 26.5146C34.4915 26.5057 34.5021 26.4943 34.5099 26.481C34.5178 26.4677 34.5227 26.4529 34.5244 26.4376C35.2374 19.1735 33.3294 12.862 29.4635 7.26922C29.4541 7.25105 29.4384 7.23688 29.4193 7.22929ZM11.8838 22.6102C10.1982 22.6102 8.80788 21.0858 8.80788 19.2163C8.80788 17.3454 10.1711 15.8224 11.8838 15.8224C13.6092 15.8224 14.9868 17.3582 14.9597 19.2163C14.9597 21.0872 13.5964 22.6102 11.8838 22.6102ZM23.2561 22.6102C21.5692 22.6102 20.1803 21.0858 20.1803 19.2163C20.1803 17.3454 21.5421 15.8224 23.2561 15.8224C24.9816 15.8224 26.3591 17.3582 26.332 19.2163C26.332 21.0872 24.983 22.6102 23.2561 22.6102Z" fill="#112F49"/>
</g>
<defs>
<clipPath id="clip0_300_1141">
<rect width="34.2241" height="34.2241" fill="white" transform="translate(0.447266 0.823486)"/>
</clipPath>
</defs>
</svg>
