<svg width="41" height="41" viewBox="0 0 41 41" fill="none" xmlns="http://www.w3.org/2000/svg">
<path d="M20.5001 15.163C17.5612 15.163 15.1629 17.5613 15.1629 20.5002C15.1629 23.439 17.5612 25.8374 20.5001 25.8374C23.4389 25.8374 25.8373 23.439 25.8373 20.5002C25.8373 17.5613 23.4389 15.163 20.5001 15.163ZM36.5077 20.5002C36.5077 18.29 36.5277 16.0999 36.4036 13.8937C36.2795 11.3312 35.6949 9.057 33.8211 7.18317C31.9432 5.30534 29.673 4.72477 27.1105 4.60065C24.9004 4.47653 22.7102 4.49655 20.5041 4.49655C18.2939 4.49655 16.1038 4.47653 13.8976 4.60065C11.3351 4.72477 9.06091 5.30934 7.18708 7.18317C5.30925 9.061 4.72868 11.3312 4.60456 13.8937C4.48044 16.1039 4.50046 18.294 4.50046 20.5002C4.50046 22.7063 4.48044 24.9005 4.60456 27.1066C4.72868 29.6691 5.31325 31.9433 7.18708 33.8172C9.06491 35.695 11.3351 36.2756 13.8976 36.3997C16.1078 36.5238 18.2979 36.5038 20.5041 36.5038C22.7142 36.5038 24.9044 36.5238 27.1105 36.3997C29.673 36.2756 31.9472 35.691 33.8211 33.8172C35.6989 31.9393 36.2795 29.6691 36.4036 27.1066C36.5317 24.9005 36.5077 22.7103 36.5077 20.5002ZM20.5001 28.7122C15.9556 28.7122 12.2881 25.0446 12.2881 20.5002C12.2881 15.9557 15.9556 12.2882 20.5001 12.2882C25.0445 12.2882 28.7121 15.9557 28.7121 20.5002C28.7121 25.0446 25.0445 28.7122 20.5001 28.7122ZM29.0484 13.8697C27.9874 13.8697 27.1305 13.0129 27.1305 11.9518C27.1305 10.8908 27.9874 10.034 29.0484 10.034C30.1094 10.034 30.9663 10.8908 30.9663 11.9518C30.9666 12.2038 30.9172 12.4533 30.8209 12.6861C30.7247 12.919 30.5834 13.1305 30.4053 13.3087C30.2271 13.4868 30.0156 13.6281 29.7827 13.7244C29.5499 13.8206 29.3004 13.87 29.0484 13.8697Z" fill="#112F49"/>
</svg>
