<svg width="35" height="35" viewBox="0 0 35 35" fill="none" xmlns="http://www.w3.org/2000/svg">
<g clip-path="url(#clip0_300_1139)">
<path d="M17.3357 0.617676C7.88641 0.617676 0.223633 8.28045 0.223633 17.7297C0.223633 27.179 7.88641 34.8418 17.3357 34.8418C26.785 34.8418 34.4477 27.179 34.4477 17.7297C34.4477 8.28045 26.7884 0.617676 17.3357 0.617676ZM8.66672 18.3047L8.73859 18.1883L13.1911 11.2237C13.2562 11.1245 13.4102 11.1347 13.4581 11.2443C14.2008 12.911 14.8442 14.9849 14.543 16.2752C14.4164 16.8057 14.0639 17.5244 13.6669 18.1883C13.6155 18.2842 13.5608 18.38 13.4992 18.4724C13.4718 18.5135 13.4239 18.5374 13.3725 18.5374H8.79677C8.67356 18.5374 8.60169 18.4039 8.66672 18.3047ZM28.5064 20.7004C28.5064 20.7654 28.4688 20.8202 28.414 20.8441C28.0684 20.9913 26.8876 21.5354 26.3982 22.2165C25.1456 23.9585 24.1908 26.45 22.0518 26.45H13.133C9.97065 26.45 7.41069 23.8798 7.41069 20.7072V20.6045C7.41069 20.5224 7.47914 20.454 7.5647 20.454H12.534C12.6333 20.454 12.7052 20.5429 12.6983 20.6422C12.6607 20.9639 12.7223 21.2959 12.8763 21.597C13.1706 22.196 13.7832 22.569 14.4437 22.569H16.9045V20.649H14.4711C14.3479 20.649 14.2726 20.5053 14.3445 20.4026C14.3719 20.3616 14.3993 20.3205 14.4335 20.2726C14.6628 19.944 14.9913 19.4375 15.3199 18.8591C15.5423 18.469 15.7579 18.0514 15.9325 17.6339C15.9667 17.5586 15.9941 17.4799 16.0249 17.4046C16.0728 17.2711 16.1207 17.1445 16.1549 17.0213C16.1892 16.9152 16.22 16.8057 16.2474 16.703C16.3295 16.3471 16.3637 15.9706 16.3637 15.5804C16.3637 15.4264 16.3569 15.2656 16.3432 15.115C16.3363 14.9473 16.3158 14.7796 16.2953 14.6119C16.2816 14.4647 16.2542 14.3176 16.2268 14.167C16.1892 13.9445 16.1413 13.7221 16.0865 13.4996L16.066 13.4141C16.0249 13.2601 15.9872 13.1163 15.9393 12.9623C15.799 12.4832 15.6416 12.0143 15.4705 11.5762C15.4089 11.4017 15.3404 11.234 15.2685 11.0697C15.1659 10.8165 15.0598 10.5872 14.9639 10.3715C14.9126 10.2723 14.8715 10.1833 14.8305 10.0909C14.7826 9.98823 14.7346 9.88556 14.6833 9.78631C14.6491 9.71102 14.608 9.63915 14.5806 9.5707L14.2795 9.01627C14.2384 8.94098 14.3068 8.84857 14.389 8.87253L16.2713 9.38247H16.2782C16.2816 9.38247 16.2816 9.38247 16.285 9.38247L16.5314 9.45434L16.8052 9.52963L16.9045 9.55701V8.4413C16.9045 7.90056 17.3357 7.46249 17.873 7.46249C18.1399 7.46249 18.3829 7.57201 18.5541 7.74998C18.7286 7.92794 18.8381 8.17093 18.8381 8.4413V10.1012L19.04 10.1559C19.0537 10.1628 19.0708 10.1696 19.0845 10.1799C19.1324 10.2141 19.2043 10.2689 19.2933 10.3373C19.3652 10.3921 19.4405 10.4605 19.5294 10.5324C19.7108 10.6796 19.9299 10.8678 20.166 11.0834C20.2276 11.1382 20.2892 11.1929 20.3474 11.2511C20.652 11.5352 20.9942 11.8671 21.3228 12.2368C21.4152 12.3428 21.5042 12.4455 21.5966 12.5585C21.6856 12.6714 21.7848 12.7809 21.8669 12.8904C21.9799 13.0376 22.0963 13.1916 22.2023 13.3525C22.2503 13.4278 22.3084 13.5065 22.3529 13.5818C22.4898 13.7837 22.6062 13.9925 22.7191 14.2012C22.767 14.297 22.815 14.4031 22.856 14.5058C22.9827 14.7864 23.0819 15.0705 23.1435 15.358C23.164 15.4196 23.1777 15.4846 23.1846 15.5462V15.5599C23.2051 15.6421 23.212 15.731 23.2188 15.8234C23.2462 16.1143 23.2325 16.4087 23.1709 16.703C23.1435 16.8262 23.1093 16.9426 23.0682 17.0692C23.0237 17.189 22.9827 17.3122 22.9279 17.432C22.8218 17.675 22.6986 17.9214 22.5514 18.1473C22.5035 18.2328 22.4453 18.3218 22.3906 18.4074C22.329 18.4963 22.2639 18.5819 22.2092 18.664C22.1305 18.7701 22.0483 18.8797 21.9628 18.9789C21.8875 19.0816 21.8122 19.1842 21.7266 19.2767C21.6103 19.417 21.4973 19.547 21.3775 19.6736C21.3091 19.7558 21.2338 19.8413 21.1551 19.9166C21.0798 20.0022 21.0011 20.0775 20.9326 20.1459C20.8128 20.2657 20.717 20.3547 20.6349 20.4334L20.4398 20.608C20.4124 20.6353 20.3748 20.649 20.3371 20.649H18.8381V22.569H20.7239C21.1448 22.569 21.5452 22.4218 21.8704 22.1446C21.9799 22.0488 22.4624 21.6313 23.034 21.0015C23.0545 20.9776 23.0785 20.9639 23.1059 20.9571L28.3113 19.4512C28.4106 19.4238 28.5064 19.4957 28.5064 19.5984V20.7004Z" fill="#112F49"/>
</g>
<defs>
<clipPath id="clip0_300_1139">
<rect width="34.2241" height="34.2241" fill="white" transform="translate(0.223633 0.617676)"/>
</clipPath>
</defs>
</svg>
