<svg width="37" height="37" viewBox="0 0 37 37" fill="none" xmlns="http://www.w3.org/2000/svg">
<path fill-rule="evenodd" clip-rule="evenodd" d="M37 18.5C37 28.7166 28.7166 37 18.5 37C8.28337 37 0 28.7166 0 18.5C0 8.28337 8.28337 0 18.5 0C28.7166 0 37 8.28337 37 18.5ZM30.3523 17.0477C30.6514 17.4748 30.821 17.9789 30.8395 18.5C30.8476 19.0098 30.7111 19.5114 30.4459 19.9469C30.1807 20.3823 29.7976 20.7337 29.341 20.9605C29.3626 21.2318 29.3626 21.5032 29.341 21.7745C29.341 25.9185 24.5125 29.2855 18.5555 29.2855C12.5985 29.2855 7.77 25.9185 7.77 21.7745C7.74917 21.5036 7.74917 21.2314 7.77 20.9605C7.41722 20.7954 7.10439 20.5558 6.853 20.2583C6.60161 19.9607 6.41763 19.6123 6.3137 19.2369C6.20977 18.8615 6.18837 18.468 6.25095 18.0836C6.31353 17.6991 6.45862 17.3328 6.67624 17.0097C6.89386 16.6867 7.17886 16.4146 7.51163 16.2121C7.84441 16.0097 8.21707 15.8817 8.60401 15.837C8.99095 15.7923 9.38299 15.8318 9.75317 15.953C10.1234 16.0742 10.4629 16.2741 10.7485 16.539C12.8802 15.0933 15.3881 14.3023 17.9635 14.2635L19.3325 7.844C19.3479 7.76968 19.3778 7.69916 19.4207 7.63651C19.4635 7.57386 19.5183 7.52033 19.582 7.47903C19.6457 7.43774 19.7169 7.40948 19.7916 7.39592C19.8663 7.38235 19.9429 7.38374 20.017 7.4L24.5495 8.3065C24.7708 7.92621 25.1205 7.63727 25.5357 7.49153C25.9509 7.3458 26.4044 7.35283 26.8149 7.51134C27.2253 7.66986 27.5659 7.9695 27.7753 8.35646C27.9848 8.74342 28.0495 9.19237 27.9578 9.62273C27.866 10.0531 27.6239 10.4367 27.2749 10.7046C26.9259 10.9725 26.4928 11.1073 26.0533 11.0847C25.6139 11.0621 25.1969 10.8836 24.8772 10.5812C24.5575 10.2789 24.3561 9.87249 24.309 9.435L20.35 8.6025L19.1475 14.3745C21.6916 14.4291 24.1655 15.2194 26.27 16.65C26.5509 16.3799 26.887 16.1738 27.2552 16.0459C27.6233 15.918 28.0148 15.8714 28.4027 15.9092C28.7906 15.947 29.1657 16.0683 29.5023 16.2649C29.8388 16.4614 30.1288 16.7285 30.3523 17.0477ZM12.6509 19.3217C12.5159 19.5238 12.422 19.7504 12.3745 19.9888C12.3271 20.2271 12.3271 20.4725 12.3744 20.7108C12.4701 21.1922 12.7531 21.6159 13.1612 21.8886C13.5693 22.1613 14.0689 22.2608 14.5503 22.1651C14.7887 22.1177 15.0154 22.0238 15.2175 21.8888C15.4195 21.7538 15.593 21.5803 15.7281 21.3783C16.0008 20.9702 16.1003 20.4706 16.0046 19.9892C15.9089 19.5078 15.6258 19.0841 15.2178 18.8114C14.8097 18.5387 14.3101 18.4392 13.8287 18.5349C13.3473 18.6306 12.9236 18.9137 12.6509 19.3217ZM18.5185 26.862C20.1604 26.9298 21.776 26.5012 23.088 25.5115C23.1861 25.4158 23.2422 25.2851 23.244 25.148C23.2457 25.011 23.1929 24.8789 23.0972 24.7807C23.0499 24.7322 22.9934 24.6934 22.931 24.6666C22.8687 24.6399 22.8016 24.6256 22.7338 24.6248C22.5967 24.623 22.4646 24.6758 22.3665 24.7715C21.2437 25.5769 19.8797 25.975 18.5 25.9C17.122 25.9616 15.7643 25.5503 14.652 24.7345C14.5561 24.6558 14.4345 24.6156 14.3106 24.6217C14.1868 24.6278 14.0696 24.6797 13.9819 24.7674C13.8942 24.8551 13.8423 24.9723 13.8362 25.0961C13.8301 25.22 13.8703 25.3416 13.949 25.4375C15.2615 26.4266 16.8764 26.93 18.5185 26.862ZM21.7267 21.9626C22.032 22.1661 22.3711 22.348 22.7365 22.348C22.9874 22.3509 23.2363 22.3027 23.468 22.2064C23.6997 22.11 23.9093 21.9675 24.0841 21.7875C24.259 21.6074 24.3953 21.3937 24.4848 21.1593C24.5744 20.9249 24.6153 20.6747 24.605 20.424C24.6049 20.1044 24.522 19.7904 24.3644 19.5124C24.2068 19.2344 23.9799 19.0019 23.7058 18.8377C23.4316 18.6735 23.1197 18.583 22.8002 18.5752C22.4807 18.5674 22.1647 18.6425 21.8829 18.7932C21.601 18.9438 21.3631 19.1649 21.1921 19.4349C21.0211 19.7048 20.923 20.0145 20.9072 20.3336C20.8915 20.6528 20.9587 20.9706 21.1023 21.2561C21.246 21.5416 21.4611 21.785 21.7267 21.9626Z" fill="#112F49"/>
</svg>
