<svg width="70" height="70" viewBox="0 0 70 70" fill="none" xmlns="http://www.w3.org/2000/svg">
<g filter="url(#filter0_d_288_2848)">
<path d="M50.8334 41.3334V44.5H47.6667C45.45 44.5 43.2334 43.8667 41.3334 42.9167C37.375 44.975 32.625 44.975 28.6667 42.9167C26.7667 43.8667 24.55 44.5 22.3334 44.5H19.1667V41.3334H22.3334C24.55 41.3334 26.7667 40.5417 28.6667 39.275C32.4667 41.9667 37.5334 41.9667 41.3334 39.275C43.2334 40.5417 45.45 41.3334 47.6667 41.3334H50.8334ZM24.36 37.8342C25.215 37.5809 26.0859 37.185 26.9092 36.6467L28.7142 35.4275L30.5034 36.6942C31.8334 37.6284 33.4167 38.1667 35 38.1667C36.5834 38.1667 38.1667 37.6284 39.4967 36.6942L41.2859 35.4275L43.0909 36.6467C44.3892 37.5175 45.8142 38.0084 47.1442 38.1192C44.88 27.7167 35.5859 19.1667 25.5 19.1667C24.9459 19.1667 24.4392 19.4517 24.1542 19.9109C23.8692 20.3859 23.8375 20.9717 24.0909 21.4625C27.5267 28.3342 26.4659 33.8759 24.36 37.8342ZM41.3334 45.6084C37.5334 48.3 32.4667 48.3 28.6667 45.6084C26.7667 46.875 24.55 47.6667 22.3334 47.6667H19.1667V50.8334H22.3334C24.55 50.8334 26.7667 50.2 28.6667 49.25C32.625 51.3084 37.375 51.3084 41.3334 49.25C43.2334 50.2 45.45 50.8334 47.6667 50.8334H50.8334V47.6667H47.6667C45.45 47.6667 43.2334 46.875 41.3334 45.6084Z" fill="#BCDFFF"/>
</g>
<defs>
<filter id="filter0_d_288_2848" x="-3" y="-3" width="76" height="76" filterUnits="userSpaceOnUse" color-interpolation-filters="sRGB">
<feFlood flood-opacity="0" result="BackgroundImageFix"/>
<feColorMatrix in="SourceAlpha" type="matrix" values="0 0 0 0 0 0 0 0 0 0 0 0 0 0 0 0 0 0 127 0" result="hardAlpha"/>
<feOffset/>
<feGaussianBlur stdDeviation="9.5"/>
<feComposite in2="hardAlpha" operator="out"/>
<feColorMatrix type="matrix" values="0 0 0 0 0.8375 0 0 0 0 0.922746 0 0 0 0 1 0 0 0 0.35 0"/>
<feBlend mode="normal" in2="BackgroundImageFix" result="effect1_dropShadow_288_2848"/>
<feBlend mode="normal" in="SourceGraphic" in2="effect1_dropShadow_288_2848" result="shape"/>
</filter>
</defs>
</svg>
