<svg width="70" height="70" viewBox="0 0 70 70" fill="none" xmlns="http://www.w3.org/2000/svg">
<g filter="url(#filter0_d_288_2850)">
<path d="M47.6668 42.1667H49.8334V43.3333H47.6668C45.6339 43.3333 43.5698 42.7502 41.7806 41.8556L41.3245 41.6275L40.8721 41.8628C37.2029 43.7707 32.7972 43.7707 29.1281 41.8628L28.6757 41.6275L28.2195 41.8556C26.4304 42.7502 24.3663 43.3333 22.3334 43.3333H20.1667V42.1667H22.3334C24.5594 42.1667 26.7486 41.447 28.653 40.3007C32.5361 42.7359 37.464 42.7359 41.3472 40.3007C43.2515 41.447 45.4408 42.1667 47.6668 42.1667ZM45.7894 36.6748C45.071 36.4555 44.3429 36.1154 43.6494 35.6505C43.6489 35.6502 43.6484 35.6498 43.648 35.6495L41.8456 34.4322L41.2725 34.0451L40.7081 34.4447L38.922 35.7092C38.9215 35.7095 38.921 35.7099 38.9205 35.7102C37.7437 36.5364 36.359 37 35.0001 37C33.6411 37 32.2564 36.5364 31.0796 35.7102C31.0791 35.7099 31.0787 35.7095 31.0782 35.7092L29.2921 34.4447L28.7276 34.0451L28.1545 34.4322L26.3559 35.647C26.3493 35.6513 26.3428 35.6556 26.3362 35.6598C27.7283 31.7282 27.9235 26.7249 24.9853 20.8486L24.9854 20.8486L24.9795 20.8372C24.8947 20.6728 24.8951 20.458 25.0078 20.2654C25.1107 20.1043 25.2936 20 25.5001 20C34.558 20 43.0875 27.3445 45.7894 36.6748ZM29.1281 48.1961L28.6757 47.9608L28.2195 48.1889C26.4304 49.0835 24.3663 49.6667 22.3334 49.6667H20.1667V48.5H22.3334C24.5594 48.5 26.7486 47.7803 28.653 46.6341C32.5361 49.0692 37.464 49.0692 41.3472 46.6341C43.2515 47.7803 45.4408 48.5 47.6668 48.5H49.8334V49.6667H47.6668C45.6339 49.6667 43.5698 49.0835 41.7806 48.1889L41.3245 47.9608L40.8721 48.1961C37.2029 50.1041 32.7972 50.1041 29.1281 48.1961Z" stroke="#BCDFFF" stroke-width="2"/>
</g>
<defs>
<filter id="filter0_d_288_2850" x="-3" y="-5" width="76" height="76" filterUnits="userSpaceOnUse" color-interpolation-filters="sRGB">
<feFlood flood-opacity="0" result="BackgroundImageFix"/>
<feColorMatrix in="SourceAlpha" type="matrix" values="0 0 0 0 0 0 0 0 0 0 0 0 0 0 0 0 0 0 127 0" result="hardAlpha"/>
<feOffset/>
<feGaussianBlur stdDeviation="9.5"/>
<feComposite in2="hardAlpha" operator="out"/>
<feColorMatrix type="matrix" values="0 0 0 0 0.8375 0 0 0 0 0.922746 0 0 0 0 1 0 0 0 0.35 0"/>
<feBlend mode="normal" in2="BackgroundImageFix" result="effect1_dropShadow_288_2850"/>
<feBlend mode="normal" in="SourceGraphic" in2="effect1_dropShadow_288_2850" result="shape"/>
</filter>
</defs>
</svg>
