<svg width="35" height="35" viewBox="0 0 35 35" fill="none" xmlns="http://www.w3.org/2000/svg">
<g clip-path="url(#clip0_300_1147)">
<path d="M17.6709 0.546875C8.27977 0.546875 0.670898 8.13477 0.670898 17.5C0.670898 26.8652 8.27977 34.4531 17.6709 34.4531C27.062 34.4531 34.6709 26.8652 34.6709 17.5C34.6709 8.13477 27.062 0.546875 17.6709 0.546875ZM26.0201 12.1611L23.2302 25.2725C23.0245 26.2021 22.4693 26.4277 21.6947 25.9902L17.4447 22.8662L15.3951 24.835C15.1689 25.0605 14.9769 25.252 14.5382 25.252L14.8399 20.9385L22.7161 13.8428C23.0588 13.542 22.6407 13.3711 22.1882 13.6719L12.4544 19.7832L8.2592 18.4775C7.34751 18.1904 7.32695 17.5684 8.45114 17.1309L24.8411 10.8281C25.6019 10.5547 26.2669 11.0127 26.0201 12.1611Z" fill="#112F49"/>
</g>
<defs>
<clipPath id="clip0_300_1147">
<rect width="34" height="35" fill="white" transform="translate(0.670898)"/>
</clipPath>
</defs>
</svg>
