<svg width="35" height="35" viewBox="0 0 35 35" fill="none" xmlns="http://www.w3.org/2000/svg">
<path d="M33.7153 7.65791C32.5245 8.18553 31.2454 8.54203 29.9007 8.70317C31.2882 7.87294 32.3263 6.56625 32.8212 5.02693C31.5176 5.80123 30.0909 6.34626 28.603 6.63831C27.6025 5.57004 26.2773 4.86198 24.8332 4.62405C23.389 4.38611 21.9067 4.63163 20.6163 5.32247C19.326 6.01332 18.2998 7.11084 17.6972 8.44464C17.0945 9.77844 16.9491 11.2739 17.2834 12.6988C14.642 12.5662 12.058 11.8797 9.69912 10.6838C7.34022 9.48784 5.25914 7.80929 3.59094 5.75704C3.02054 6.74099 2.69256 7.88179 2.69256 9.09674C2.69192 10.1905 2.96126 11.2675 3.47668 12.2321C3.99211 13.1968 4.73767 14.0194 5.64723 14.6268C4.59239 14.5932 3.56081 14.3082 2.63837 13.7954V13.881C2.63826 15.415 3.16889 16.9018 4.14021 18.0891C5.11153 19.2764 6.46372 20.0911 7.96734 20.395C6.9888 20.6598 5.96286 20.6988 4.96703 20.5091C5.39126 21.829 6.21763 22.9832 7.33044 23.8101C8.44326 24.6371 9.7868 25.0953 11.173 25.1207C8.81985 26.968 5.91374 27.97 2.92214 27.9656C2.39221 27.9658 1.86273 27.9348 1.33643 27.8729C4.37307 29.8254 7.90794 30.8616 11.5181 30.8576C23.7389 30.8576 30.4198 20.7358 30.4198 11.9573C30.4198 11.6721 30.4126 11.3841 30.3998 11.0989C31.6993 10.1591 32.821 8.99535 33.7124 7.66218L33.7153 7.65791Z" fill="#112F49"/>
</svg>
