<svg width="36" height="36" viewBox="0 0 36 36" fill="none" xmlns="http://www.w3.org/2000/svg">
<path d="M31.5637 26.6168V28.0955C31.5637 29.7221 30.2329 31.053 28.6063 31.053H7.90421C7.11985 31.053 6.36762 30.7414 5.81299 30.1868C5.25836 29.6321 4.94678 28.8799 4.94678 28.0955V7.39347C4.94678 6.60911 5.25836 5.85688 5.81299 5.30225C6.36762 4.74762 7.11985 4.43604 7.90421 4.43604H28.6063C30.2329 4.43604 31.5637 5.76688 31.5637 7.39347V8.87219H18.2552C17.4709 8.87219 16.7186 9.18378 16.164 9.7384C15.6094 10.293 15.2978 11.0453 15.2978 11.8296V23.6594C15.2978 24.4437 15.6094 25.196 16.164 25.7506C16.7186 26.3052 17.4709 26.6168 18.2552 26.6168H31.5637ZM18.2552 23.6594H33.0424V11.8296H18.2552V23.6594ZM24.1701 19.9626C22.9428 19.9626 21.952 18.9718 21.952 17.7445C21.952 16.5172 22.9428 15.5264 24.1701 15.5264C25.3975 15.5264 26.3882 16.5172 26.3882 17.7445C26.3882 18.9718 25.3975 19.9626 24.1701 19.9626Z" fill="white"/>
</svg>
